<?xml version="1.0" encoding="UTF-8" standalone="no"?>
<!-- Created with Inkscape (http://www.inkscape.org/) -->

<svg
   xmlns:dc="http://purl.org/dc/elements/1.1/"
   xmlns:cc="http://creativecommons.org/ns#"
   xmlns:rdf="http://www.w3.org/1999/02/22-rdf-syntax-ns#"
   xmlns:svg="http://www.w3.org/2000/svg"
   xmlns="http://www.w3.org/2000/svg"
   xmlns:xlink="http://www.w3.org/1999/xlink"
   xmlns:sodipodi="http://sodipodi.sourceforge.net/DTD/sodipodi-0.dtd"
   xmlns:inkscape="http://www.inkscape.org/namespaces/inkscape"
   width="16"
   height="16"
   id="svg2"
   sodipodi:version="0.32"
   inkscape:version="0.47 r22583"
   version="1.0"
   sodipodi:docname="checkmark.svg"
   inkscape:output_extension="org.inkscape.output.svg.inkscape"
   inkscape:export-filename="C:\Documents and Settings\Ryan\My Documents\Downloads\checkmark.png"
   inkscape:export-xdpi="90"
   inkscape:export-ydpi="90"
   style="display: inline;">
  <defs
     id="defs4">
    <linearGradient
       id="linearGradient5157">
      <stop
         style="stop-color: rgb(85, 87, 83);"
         offset="0"
         id="stop5159" />
      <stop
         style="stop-color: rgb(85, 87, 83); stop-opacity: 0;"
         offset="1"
         id="stop5161" />
    </linearGradient>
    <linearGradient
       inkscape:collect="always"
       xlink:href="#linearGradient5157"
       id="linearGradient5163"
       x1="10.729691"
       y1="26.422195"
       x2="2.3941064"
       y2="26.422195"
       gradientUnits="userSpaceOnUse"
       gradientTransform="matrix(0.378321, 0, 0, 0.378321, -0.814219, -2.15585)" />
    <inkscape:perspective
       sodipodi:type="inkscape:persp3d"
       inkscape:vp_x="0 : 526.18109 : 1"
       inkscape:vp_y="0 : 1000 : 0"
       inkscape:vp_z="744.09448 : 526.18109 : 1"
       inkscape:persp3d-origin="372.04724 : 350.78739 : 1"
       id="perspective10" />
    <linearGradient
       inkscape:collect="always"
       xlink:href="#linearGradient5157"
       id="linearGradient2466"
       gradientUnits="userSpaceOnUse"
       gradientTransform="matrix(0.378321, 0, 0, 0.378321, -0.814219, -2.15585)"
       x1="10.729691"
       y1="26.422195"
       x2="2.3941064"
       y2="26.422195" />
    <inkscape:perspective
       id="perspective2900"
       inkscape:persp3d-origin="0.5 : 0.33333333 : 1"
       inkscape:vp_z="1 : 0.5 : 1"
       inkscape:vp_y="0 : 1000 : 0"
       inkscape:vp_x="0 : 0.5 : 1"
       sodipodi:type="inkscape:persp3d" />
  </defs>
  <sodipodi:namedview
     id="base"
     pagecolor="#ffffff"
     bordercolor="#666666"
     borderopacity="1.0"
     gridtolerance="10000"
     guidetolerance="10"
     objecttolerance="10"
     inkscape:pageopacity="0.0"
     inkscape:pageshadow="2"
     inkscape:zoom="13.597663"
     inkscape:cx="-10.375242"
     inkscape:cy="2.5038496"
     inkscape:document-units="px"
     inkscape:current-layer="layer2"
     showgrid="false"
     inkscape:window-width="1192"
     inkscape:window-height="980"
     inkscape:window-x="298"
     inkscape:window-y="59"
     inkscape:window-maximized="0" />
  <metadata
     id="metadata7">
    <rdf:RDF>
      <cc:Work
         rdf:about="">
        <dc:format>image/svg+xml</dc:format>
        <dc:type
           rdf:resource="http://purl.org/dc/dcmitype/StillImage" />
        <dc:title></dc:title>
      </cc:Work>
    </rdf:RDF>
  </metadata>
  <g
     inkscape:groupmode="layer"
     id="layer2"
     style="opacity: 1; display: inline;"
     inkscape:label="Layer 1">
    <g
       id="g2922"
       transform="matrix(0.76938172,0,0,0.76938172,3.8129416,-2.3297412)">
      <path
         sodipodi:nodetypes="csssccssssccc"
         id="path2521"
         d="m 5.238468,5.3497063 c -4.73070197,0 -8.582354,3.8516547 -8.582355,8.5823557 0,4.730702 3.85165303,8.582354 8.582355,8.582355 4.7307019,0 8.582357,-3.851652 8.582356,-8.582355 0,-2.045181 -0.699719,-3.881812 -1.897916,-5.3571254 l -0.777449,0.9424445 c 1.024535,1.2614869 1.425545,2.6620299 1.425545,4.4146809 10e-7,4.054053 -3.2784834,7.330601 -7.332536,7.330601 -4.054053,-2e-6 -7.332535,-3.276548 -7.332535,-7.330601 10e-7,-4.0540511 3.278484,-7.3325357 7.332535,-7.3325357 1.284635,0 2.245471,0.1846669 3.2944257,0.7639817 L 9.2353436,6.345974 C 8.007181,5.6676865 6.737518,5.3497063 5.238468,5.3497063 z"
         style="fill:#000000;fill-opacity:1;fill-rule:evenodd;stroke:none;stroke-width:20.20000076;marker:none;visibility:visible;display:inline;overflow:visible" />
      <path
         id="path2394"
         d="m 2.062019,12.803318 c 0.346076,10e-6 0.607854,0.283971 0.785338,0.851893 0.354948,1.064872 0.607854,1.597302 0.758715,1.597297 0.115354,5e-6 0.235152,-0.08873 0.359395,-0.266217 2.493547,-3.993234 4.8007522,-7.2233198 6.92162,-9.6902723 0.550166,-0.6389 1.424241,-0.9583599 2.622231,-0.9583778 0.283948,1.79e-5 0.474736,0.026638 0.572364,0.079864 0.0976,0.053261 0.146403,0.119815 0.146421,0.1996635 -1.8e-5,0.1242509 -0.146436,0.3682832 -0.439258,0.7320946 -3.425331,4.1174901 -6.602175,8.465686 -9.530541,13.044596 -0.204109,0.319462 -0.621179,0.479193 -1.251218,0.47919 -0.638924,3e-6 -1.016065,-0.02662 -1.131417,-0.07987 -0.301718,-0.133104 -0.656673,-0.811955 -1.06486497,-2.036553 -0.461446,-1.357698 -0.692168,-2.209588 -0.692164,-2.555677 -4e-6,-0.372694 0.310582,-0.732086 0.93175697,-1.078175 0.381572,-0.212966 0.718778,-0.31945 1.011622,-0.31946"
         style="font-size:12px;font-style:normal;font-variant:normal;font-weight:normal;font-stretch:normal;fill:#000000;fill-opacity:1;stroke:none;font-family:Webdings" />
    </g>
  </g>
</svg>
